<svg width="19" height="20" viewBox="0 0 19 20" fill="none" xmlns="http://www.w3.org/2000/svg">
<path fill-rule="evenodd" clip-rule="evenodd" d="M13.0713 1.66699H15.7934C16.9197 1.66699 17.8334 2.58857 17.8334 3.72548V6.47041C17.8334 7.60645 16.9197 8.5289 15.7934 8.5289H13.0713C11.9442 8.5289 11.0305 7.60645 11.0305 6.47041V3.72548C11.0305 2.58857 11.9442 1.66699 13.0713 1.66699Z" stroke="white" stroke-width="1.5" stroke-linecap="round" stroke-linejoin="round"/>
<path fill-rule="evenodd" clip-rule="evenodd" d="M3.20745 1.66699H5.92876C7.05588 1.66699 7.96953 2.58857 7.96953 3.72548V6.47041C7.96953 7.60645 7.05588 8.5289 5.92876 8.5289H3.20745C2.08034 8.5289 1.16669 7.60645 1.16669 6.47041V3.72548C1.16669 2.58857 2.08034 1.66699 3.20745 1.66699Z" stroke="white" stroke-width="1.5" stroke-linecap="round" stroke-linejoin="round"/>
<path fill-rule="evenodd" clip-rule="evenodd" d="M3.20745 11.4717H5.92876C7.05588 11.4717 7.96953 12.3933 7.96953 13.531V16.2751C7.96953 17.412 7.05588 18.3336 5.92876 18.3336H3.20745C2.08034 18.3336 1.16669 17.412 1.16669 16.2751V13.531C1.16669 12.3933 2.08034 11.4717 3.20745 11.4717Z" stroke="white" stroke-width="1.5" stroke-linecap="round" stroke-linejoin="round"/>
<path fill-rule="evenodd" clip-rule="evenodd" d="M13.0713 11.4717H15.7934C16.9197 11.4717 17.8334 12.3933 17.8334 13.531V16.2751C17.8334 17.412 16.9197 18.3336 15.7934 18.3336H13.0713C11.9442 18.3336 11.0305 17.412 11.0305 16.2751V13.531C11.0305 12.3933 11.9442 11.4717 13.0713 11.4717Z" stroke="white" stroke-width="1.5" stroke-linecap="round" stroke-linejoin="round"/>
</svg>
