<svg width="15" height="18" viewBox="0 0 15 18" fill="none" xmlns="http://www.w3.org/2000/svg">
<ellipse cx="7.14911" cy="5.0647" rx="3.98169" ry="3.98169" stroke="#53585F" stroke-width="1.5" stroke-linecap="round" stroke-linejoin="round"/>
<path fill-rule="evenodd" clip-rule="evenodd" d="M0.833326 14.5846C0.832257 14.3047 0.894857 14.0282 1.01639 13.7761C1.39778 13.0133 2.4733 12.609 3.36574 12.426C4.00938 12.2886 4.6619 12.1969 5.31845 12.1514C6.53401 12.0446 7.75659 12.0446 8.97215 12.1514C9.62865 12.1974 10.2811 12.2891 10.9249 12.426C11.8173 12.609 12.8928 12.9752 13.2742 13.7761C13.5186 14.2901 13.5186 14.8868 13.2742 15.4008C12.8928 16.2017 11.8173 16.5678 10.9249 16.7433C10.282 16.8863 9.62923 16.9807 8.97215 17.0255C7.98279 17.1094 6.9888 17.1247 5.99732 17.0713C5.76849 17.0713 5.54729 17.0713 5.31845 17.0255C4.66384 16.9812 4.01358 16.8869 3.37337 16.7433C2.4733 16.5678 1.40541 16.2017 1.01639 15.4008C0.895478 15.1457 0.83294 14.8669 0.833326 14.5846Z" stroke="#53585F" stroke-width="1.5" stroke-linecap="round" stroke-linejoin="round"/>
</svg>
